<?xml version="1.0" encoding="UTF-8"?>
<svg id="Layer_2" data-name="Layer 2" xmlns="http://www.w3.org/2000/svg" viewBox="0 0 194.7 212.28">
  <defs>
    <style>
      .cls-1 {
        fill: #0bc4b5;
      }

      .cls-2 {
        fill: #07c4b8;
      }

      .cls-3 {
        fill: #2285d1;
      }

      .cls-4 {
        fill: #354de4;
      }

      .cls-5 {
        fill: #314ee5;
      }

      .cls-6 {
        fill: #425cf1;
      }

      .cls-7 {
        fill: #1aa6ce;
      }
    </style>
  </defs>
  <g id="Layer_1-2" data-name="Layer 1">
    <g>
      <path class="cls-3" d="M177.03,99.65c4.78-3.73,11.41-2.54,15.04,1.54,3.65,4.09,3.57,11.09-.72,14.97-5.54,5-12.27,2.87-17.46-1.25-3.2-2.23-8.33-2.06-12.43-2.39-44.81-3.66-89.49-3.66-134.27.49-2.64.24-5.46.57-7.16,2.04-3.02,2.61-5.95,4.28-9.79,3.95-3.6-.32-7.15-2.06-9.03-5.72-2.63-5.1-.79-11.12,3.83-14.07,4.55-2.91,10.72-2.28,14.49,1.98,2.9,3.27,42.15,4.93,53.57,4.92l45.96-.02c17.04,0,33.66-.93,50.54-2.89,3.18-.37,4.93-1.59,7.43-3.55Z"/>
      <path class="cls-5" d="M167.32,152.45c-2.16-1.95-4.13-3.19-6.84-3.39l-21.59-1.61c-31.8-1.02-63.09-1.11-94.87.62-4.63.25-10.96.25-14.36,2.96-5.33,4.24-10.97,6.06-16.35,1.62-4.92-4.06-5.33-11.92-.38-16.34,4.86-4.34,12.13-3.36,16.52,1.58,1.56,1.76,5.05,2.02,7.58,2.28,40.5,4.13,81.07,3.96,121.51-.05,4.15-.41,6.39-1.89,9.2-4.21,4.56-3.79,11.39-2.89,14.94,1.18,3.64,4.18,3.65,10.85-.36,14.9-3.79,3.84-10.46,4.57-14.99.48Z"/>
      <path class="cls-7" d="M185.05,69.25c1.36,5.4-1.14,10.37-5.44,12.67-4.67,2.5-10,1.11-13.82-2.71-2.01-2.01-5.58-2.45-8.6-2.76-31.51-3.23-62.78-3.88-94.42-2.1-10.02.56-19.34,1.2-29.13,2.81-2.3.38-4.04,1.28-5.66,2.9-4.34,4.34-11.46,3.94-15.45-.09-4.46-4.5-3.99-11.96.59-15.8,4.99-4.17,11.82-3.17,16.26,1.64,1.95,2.12,6.06,2.53,9.24,2.68,38.36,1.78,76.32,1.82,114.76.2,4.09-.17,8.87-.47,11.82-2.77,3.61-2.81,6.36-5.21,11.5-4.19,3.17.63,7.23,3.05,8.36,7.51Z"/>
      <path class="cls-6" d="M157.3,169.31c3.54,5.03,1.87,12.05-2.72,15.17-4.7,3.2-10.67,2.18-14.95-2.04-1.84-1.82-5.15-2.26-7.92-2.62-23.36-3.08-46.78-2.9-70.07.18-3.54.47-5.84,1.72-8.29,3.85-4.43,3.85-11.02,3.04-14.66-.77-3.91-4.1-4.03-10.55-.46-14.71,3.69-4.31,10.73-4.86,15.28-1.07,1.98,1.65,3.47,3.21,6.37,3.66,23.84,3.73,47.84,4.21,71.73.47,2.57-.4,5.67-.57,7.5-2.48,4.95-5.16,13.63-6.13,18.2.37Z"/>
      <path class="cls-2" d="M160.92,35.17c1.91,4.85.09,9.92-3.72,12.63-3.83,2.73-9.77,2.78-13.48-.61-2.22-2.03-4.25-3.34-7.52-3.84-25.26-3.88-50.82-3.9-76.18-.21-2.31.34-5.24.85-6.71,2.4-3.73,3.97-8.81,5.49-13.73,3.24-4.48-2.05-7.21-7.22-5.83-12.42,1.13-4.29,4.99-7.06,8.34-7.68,5.23-.97,8.05,1.36,11.77,4.14,2.5,1.88,7.03,2.01,10.28,2.34,22.39,2.28,44.44,2.35,66.81.04,3.48-.36,7.94-.69,10.6-2.66,3.55-2.63,6.05-4.62,10.79-3.93,3.19.46,6.95,2.39,8.59,6.53Z"/>
      <circle class="cls-1" cx="97.46" cy="10.69" r="10.69"/>
      <circle class="cls-4" cx="97.45" cy="201.61" r="10.66"/>
    </g>
  </g>
</svg>